<svg xmlns="http://www.w3.org/2000/svg" viewBox="0 0 1921 1080"><defs><style>.cls-1{fill:none;}.cls-2{fill:#e01919;}</style></defs><g id="Layer_2" data-name="Layer 2"><g id="Layer_1-2" data-name="Layer 1"><rect class="cls-1" width="1921" height="1080"/><path id="_1" data-name="1" class="cls-2" d="M321,1080s-19-14-42-48c0,0-10-11-3-6s14,3,18-1,16-23,16-35,0-27-8-31c0,0-11,3-18,2,0,0,0-25-10-33s-28-18-34-24-24-13-24-13-7,5-14,0-8-6-8-15-20-18-20-18,6.35,2.12,2-24a61.74,61.74,0,0,1,4-33s4-16,0-25-30-63-30-66-7-21-10-29,2-8,2-8,3-6,2-11a109.77,109.77,0,0,0-3-11s15,23,26,17c0,0,4-4,8-5l68-65s17-19,21-28l19-20v-9L167,406s14-31,28-35c0,0,13,11,21,10a34.83,34.83,0,0,1,14,1s2,0,5-7,14-30,14-30,8-20,7-32,7-20,7-20,7-8,7-26,1-32-4-36-42-25-50-31-18-2-18-2-12-1-16-4-72-5-83-3-49,7-98,49L0,1080Z"/></g></g></svg>