<svg xmlns="http://www.w3.org/2000/svg" viewBox="0 0 1921 1080.5"><defs><style>.cls-1{fill:none;}.cls-2{fill:#1d53db;}</style></defs><g id="Layer_2" data-name="Layer 2"><g id="Layer_1-2" data-name="Layer 1"><rect class="cls-1" width="1921" height="1080"/><g id="_3" data-name="3"><path class="cls-2" d="M1517,588l-5-6,31-71s-3-32-2-39-6-19-5-23,1-28,5-36c0,0-26-48-30-55,0,0-21-34-22-56s-1-33-8-42l2-6-16-22s2-5,1-5,0-20-2-30,22.11-64.79,39-74c11-6,28-18,34-16s-16-46-48-52c0,0-16-1-24,6,0,0-22-9-37-12,0,0-12-3-18-10,0,0-12-6-22,0,0,0-13-10-30-12,0,0-17-6-22-8s-20-1-27-3S1289.46,8.28,1294.73.64H878.83c-1.67.69-9.17,4-11.83,9.36-3,6-28,42-25,89,0,0,0,70.59,50.57,132.47l3.93-2,1-2,2-1,4,1L905,225l4,1,2,2,2,2h3l1-2-1-2-1-2-1-1,1-3,2,1,3,4v2l2,1a1.39,1.39,0,0,0,0-2,3.1,3.1,0,0,1-1-2l-2-3v-2l-1-2,1-2,3-5v7l2,5,2,3,1,1-1-3-1-2v-3l-1-1-1-3,1-2v-2s4-1,3,0-1,5-1,5l1,2v3s2,2,2,1,1,0,1,0v-3l-2-1v-6l1-1v-1l-1-2-1-1h-2l-1-2,1-1a1.39,1.39,0,0,1,2,0l2,2h2l2,1,1,3v2c0,1,2,3,2,3h3v-1l-2-2-2-1,1-1a3.49,3.49,0,0,1-1-2v-3l-1-1h-4l-3-1v-1l1-3s0-1,1,0a4.94,4.94,0,0,0,3,1h1a1,1,0,0,1-1-1c0-1-2,0-2,0v-4s4-1,4,0,2,3,2,3l3,2,1,1,3,3,1-1-2-2-2-2-1-1-2-2a1,1,0,0,0-1-1,1,1,0,0,1-1-1l1-2h2l3,4,1,1,2,1,1,1h2v-4l-1-1-1-3-2-1-1-3,1-2,1-1v-1.75l3,.75,1,1,2,1,3,1s-1,1,0,1,1,1,2,1,2,0,2,1,1,1,1,2v2h2v-2l-1-2-1-1-1-1-1-1a1,1,0,0,0-1-1,1,1,0,0,1-1-1l-1-2h-2l1-2,1-2-1-2,1-1h1v3l1,2,1-1,1-2,2-1,4-1h1s2,1,2,0a2.15,2.15,0,0,0-2-2c-1,0-4,1-4,0s-2-1-2-1l1-2,1-1h2s0-1,1,0a1.39,1.39,0,0,0,2,0v-1l1-1v-4h2l2,2,2,2,1,1,1,1a1,1,0,0,1,1,1c0,1,0,0,1,1l1,1,2,1,2,1,2-1v-3l-2-2s1,0,0-1a14.39,14.39,0,0,0-3-2v-2s0-2-1-2-2-2-2-2l-1-2v-2l1-1-1-2-1-1,1-1,1,1s-1,1,0,1,3-2,3-2h1l1-1v-1l1-2h1l1,1h1l2,1,1-1,1-1h1l1-2,1-1h1l1,1,2,2h2v2l2-2-2-3-1-2-1-3-1-2,1-2h2l2-1s3-2,2-3a4.94,4.94,0,0,1-1-3l3,4v2a10.07,10.07,0,0,0,1,3l1,3,2,3-1-5-1-3-1-6,1-2,2,2s3,1,3,2,1,3,2,3,3,3,4,3h3s1,0,0-1l-4-4-5-10-1-2h2s2,2,2,3,1,2,1,3a10.07,10.07,0,0,0,1,3l2,2-1-4-3-8v-2h2l4,14,3,2,1,1v-7l-5-10,3-1s-1,3,0,3,2,3,2,3l3,4v-6s-2-3-2-4-3-7-3-7h1c2,0,5,3,5,4s-1,5,0,5,3,4,3,5a10.07,10.07,0,0,0,1,3l1-3,2-4,1-1-2-12-2-2v-2s3,1,4,2,0,7,1,7,3,2,3,2l1-2v-6l-4-5s3-3,4-3,15,13,15,13l102,103s12,11,18,11c0,0-1,34,12,44,0,0,19,49,32,73,0,0,10,40,11,61a49.12,49.12,0,0,0,15,33s7,12,6,16,3,7,3,7l2,5,2,4s10,8,5,18c0,0-5,5-5,8,0,0-8,4-8,8,0,0,0,8-9,12,0,0-5,12-7,15a117.59,117.59,0,0,1,14,15c12.6,15.89,29.73,39.49,36,42,0,0,2-1,4-12s11-26,11-26l7-9-12,12s-11,3-15-2h-5s1-7,12-14a173.24,173.24,0,0,0,19-14s7-3,10-4,7-2,8-4,8-6,12-4,13,7,20,7c0,0,8,5,12,6s16,7,20,8,9,6,11,11c0,0,6,12,9,14s14,24,18,28,12,20,15,21,20,32,24,43,11,35,11,41v4l12,2,2,29-8,2s11,34,12,39c0,0-2-24,21-37s21-23,21-23,14-5,16-12,4-26,13-34,7-24,8-28,7-15,7-15Z"/><path class="cls-2" d="M1416,694s-3-16-4-22-4-8-4-8c-10-6-17-21-18-23s-19-28-19-28c0,6-7,24-10,28s-12,30-13,35-6,59-6,59c0,59,12,65,12,65,15,5,23,19,24,20s11,17,14,19,9,10,9,10c2,3,13,14,13,14l2,2c1-3,7-56,7-56,3-31-3-86-3-86-6,0-9-7-9-7V700C1411,695,1416,694,1416,694Z"/><path class="cls-2" d="M1395.05,1080.5h9c2.08-15.5,26.92-76.5,26.92-76.5-29-16-80-55-80-55C1359,1063,1395.05,1080.5,1395.05,1080.5Z"/></g></g></g></svg>