<svg xmlns="http://www.w3.org/2000/svg" viewBox="0 0 1921 1080"><defs><style>.cls-1{fill:none;}.cls-2{fill:#b523b5;}</style></defs><g id="Layer_2" data-name="Layer 2"><g id="Layer_1-2" data-name="Layer 1"><rect class="cls-1" width="1921" height="1080"/><g id="_6" data-name="6"><path class="cls-2" d="M1258,465l-2-4-2-5s-4-3-3-7-6-16-6-16a49.12,49.12,0,0,1-15-33c-1-21-11-61-11-61-13-24-32-73-32-73-13-10-12-44-12-44-6,0-18-11-18-11L1055,108s-14-13-15-13-4,3-4,3l4,5v6l-1,2s-2-2-3-2,0-6-1-7-4-2-4-2v2l2,2,2,12-1,1-2,4-1,3a10.07,10.07,0,0,1-1-3c0-1-2-5-3-5s0-4,0-5-3-4-5-4h-1s3,6,3,7,2,4,2,4v6l-3-4s-1-3-2-3,0-3,0-3l-3,1,5,10v7l-1-1-3-2-4-14h-2v2l3,8,1,4-2-2a10.07,10.07,0,0,1-1-3c0-1-1-2-1-3s-2-3-2-3h-2l1,2,5,10,4,4c1,1,0,1,0,1h-3c-1,0-3-3-4-3s-2-2-2-3-3-2-3-2l-2-2-1,2,1,6,1,3,1,5-2-3-1-3a10.07,10.07,0,0,1-1-3v-2l-3-4a4.94,4.94,0,0,0,1,3c1,1-2,3-2,3l-2,1h-2l-1,2,1,2,1,3,1,2,2,3-2,2v-2h-2l-2-2-1-1h-1l-1,1-1,2h-1l-1,1-1,1-2-1h-1l-1-1h-1l-1,2v1l-1,1h-1s-2,2-3,2,0-1,0-1l-1-1-1,1,1,1,1,2-1,1v2l1,2s1,2,2,2,1,2,1,2v2a14.39,14.39,0,0,1,3,2c1,1,0,1,0,1l2,2v3l-2,1-2-1-2-1-1-1c-1-1-1,0-1-1a1,1,0,0,0-1-1l-1-1-1-1-2-2-2-2h-2v4l-1,1v1a1.39,1.39,0,0,1-2,0c-1-1-1,0-1,0h-2l-1,1-1,2s2,0,2,1,3,0,4,0a2.15,2.15,0,0,1,2,2c0,1-2,0-2,0h-1l-4,1-2,1-1,2-1,1-1-2v-3h-1l-1,1,1,2-1,2-1,2h2l1,2a1,1,0,0,0,1,1,1,1,0,0,1,1,1l1,1,1,1,1,1,1,2v2h-2v-2c0-1-1-1-1-2s-1-1-2-1-1-1-2-1,0-1,0-1l-3-1-2-1-1-1-3-.75V183l-1,1-1,2,1,3,2,1,1,3,1,1v4h-2l-1-1-2-1-1-1-3-4h-2l-1,2a1,1,0,0,0,1,1,1,1,0,0,1,1,1l2,2,1,1,2,2,2,2-1,1-3-3-1-1-3-2s-2-2-2-3-4,0-4,0v4s2-1,2,0a1,1,0,0,0,1,1h-1a4.94,4.94,0,0,1-3-1c-1-1-1,0-1,0l-1,3v1l3,1h4l1,1v3a3.49,3.49,0,0,0,1,2l-1,1,2,1,2,2v1h-3s-2-2-2-3v-2l-1-3-2-1h-2l-2-2a1.39,1.39,0,0,0-2,0l-1,1,1,2h2l1,1,1,2v1l-1,1v6l2,1v3s-1-1-1,0-2-1-2-1v-3l-1-2s0-4,1-5-3,0-3,0v2l-1,2,1,3,1,1v3l1,2,1,3-1-1-2-3-2-5v-7l-3,5-1,2,1,2v2l2,3a3.1,3.1,0,0,0,1,2,1.39,1.39,0,0,1,0,2l-2-1v-2l-3-4-2-1-1,3,1,1,1,2,1,2-1,2h-3l-2-2-2-2-4-1-1.5,2.5-4-1-2,1-1,2-3.93,2,.43.53,1,4,1,3H881l-3-1v-6l-8,2a32.08,32.08,0,0,1-3,5c-1,1-4,3-4,4a10.07,10.07,0,0,1-1,3l-2,3s-2-1-3,0-3,0-4,1-4,0-5,1-2-1-3,0-4,0-4,0h-3l-1,4c0,1-3,1-3,1h-2s-5-1-5,0-2,3-2,3-6-1-6,0-4,2-4,2h-5l-2,2-3,2h-4s-31-2-47,4-82.3,26.78-83,27c.06,2.06.37,7.4,2,9,2,2,2,8,2,8l6,10s2,10-3,9c0,0-11,1-16-6l1,5s4,17-2,24l-2,18s-3,5-8,1l-5-4-2,2s-4,13-5,13-3,0-3-2c0,0-4,1-8-5,0,0-2,3-5-1,0,0-5-2-5-4,0,0-14,32-35,42,0,0-16,13-23,28l-11,21s3,19-7,15l-17,50s0,11-6,15c0,0-13,32-15,57s-11,58-15,64c0,0,5,3,31,4,0,0,13-1,14-2s7-3,10-2,9,0,11,0,16-5,16-6,6-6,10-4,4,3,6,3,9,1,12,1,23,1,28,0,19-2,26-1,11-2,12-2,13,0,15-1,6-2,7-3,5-5,11-3c0,0,1,0,3-2s8-3,13-1c0,0,6,0,9-3s7-4,9-2c0,0,1,1,3-2s15-3,17-3,7-4,8-4,10-7,13-12,4-9,4-10,1-5,3-6,3-1,4-2,6-8,6-10a35.36,35.36,0,0,0-1-6s-3-6-1-7a59.23,59.23,0,0,0,6-4s12-11,13-14,3-4,4-7,5-10,8-12,4-5,7-6,4,0,7-2a70.51,70.51,0,0,0,9-7l5-5c1-1,5-5,5-7a24.85,24.85,0,0,1,1-8c1-3,9-8,10-9s3-5,5-6,4-1,6-3,5-9,7-10,3-3,3-6-1-8,0-10,9-9,8-18-7-11-8-35c0,0-2-26,4-30,0,0,4,20,8,21s0-8,0-11,2,6,6,5,4-3,4-4V377a39.87,39.87,0,0,1,3-4l3-3s2-4,2-5-2-6-3-8-6-15-5-18,1-12,3-13,4-4,5-4,8-5,8-7-1-10,1-13,4-8,5-9,6-6,8-6,7-3,11-5,6-5,8-7,2-6,5-7,7-3,10-4,5-7,8-8,10-4,12-4,12,1,13,0,4-3,5-4a7.64,7.64,0,0,1,5-2c2,0,6-1,9,0s7,4,8,4,2,1,3,0-1-7,1-9,5-4,7-4,8-1,10-1,8-2,9-2,5,0,8,2,8,4,10,6,5,3,7,5,6,4,9,4,9,3,12,3,30,0,36,23c0,0,1,8,6,10s14,6,16,8,4,6,6,9,6,9,8,10,3,3,5,5,5,6,7,8,4,6,5,7-5,6-4,7,7,8,8,12-1,5,0,6,0,4,0,6,0,5-1,7-2,3-4,5-3,0-3,3,1,3,2,5,2,3,1,5-8,2-8,2a3.1,3.1,0,0,0,2,4c3,1,6,2,6,3s-5,0-5,0,8,12,12,14,6,3,7,6-6,9-6,13-1,8-1,11,0,7,1,9,2,4,6,7,6,11,10,12a15.39,15.39,0,0,1,6.46,3.08c-.64-.54-1.92-1.08-4.46-1.08-6,0-10-1-11,0s0,5,1,8,1,7,2,10,6,16,6,21a30.87,30.87,0,0,0,2,11c1,3,4,4,5,7a42,42,0,0,0,2,5l7.71-10.2h0C1237,520.64,1241,511,1241,511c9-4,9-12,9-12,0-4,8-8,8-8,0-3,5-8,5-8C1268,473,1258,465,1258,465Z"/><path class="cls-2" d="M555,779s-17-1-19-1-38-2-42-3c-2.17-.54-19-3-29-4s-45-4-45-4-25-7-38-10-23-19-30-31,0-19,0-19c3-4,12-25,12-25s14-45,30-77,49-85,49-85c0-19,7-13,7-13l36-53a28,28,0,0,1,1-12c2-6,9-8,9-8s10.5-25.5,18.5-32.5,15.93-29.35,15.93-29.36L529,375l-9,2s-45,14-48,17-28,9-28,9-50,11-82,36c0,0-28,23-42,45,0,0-13,19-20,34,0,0-12,4-13,13s-3,30-9,42-18,43-19,45c0,0-7,7,44,26,0,0,5,3,4,56l2,5s48,58,87,91c0,0,5,3,5,7s15,17,17,17-1-4-1-4l2-1s1-5,2-4,5,4,5,5,1,3,1,4,2-1,2-2v-3a3.49,3.49,0,0,1,1-2h4c1,0,2-1,3-1a10.07,10.07,0,0,0,3-1l2-1,2-1,4,1c1,0,2,0,2-1v-3l2-1,2-1s2,0,2,1,0,1,1,1a10.07,10.07,0,0,0,3-1l1-2s2,0,2-1,3-1,3-1h2l2,2h1c1,0,1-2,2-3s-1-3,0-3,2-1,3,0l2,2c1,1,2,2,2,3a2.15,2.15,0,0,0,2,2c1,0-1,1,1,0s2-1,3-1,6-1,6,0,3,1,3,2c0,.76.57,2.1.41,3.14h0l.09.36h2l1-3a2.19,2.19,0,0,1,1.5-.5h3c1,0,2-1,2,0s-1,2,0,3,1,2,2,2,2,0,2-1a22.69,22.69,0,0,1,1-4s3-2,4-2,1-1,2,0,2,1,2,3-1,3,0,4,2,3,3,2,2-5,2-6,2-3,2-3h2v4c0,1-1,3,0,3s1,0,2-1a14.39,14.39,0,0,1,3-2l2-1h2a1,1,0,0,0,1-1c0-1-1-4,0-4s3-2,4-1,1,3,1,4,0,1,1,1a10.07,10.07,0,0,0,3-1,1,1,0,0,0,1-1c0-1,1-1,2-2s3,0,4-1,2-1,3-2,0-3,1-4a14.39,14.39,0,0,1,3-2l1,1.55h0C558.91,790.1,555,779,555,779Z"/></g></g></g></svg>