<svg xmlns="http://www.w3.org/2000/svg" viewBox="0 0 1921 1081"><defs><style>.cls-1{fill:none;}.cls-2{fill:#b77a21;}</style></defs><g id="Layer_2" data-name="Layer 2"><g id="Layer_1-2" data-name="Layer 1"><rect class="cls-1" width="1921" height="1080"/><g id="_5" data-name="5"><path class="cls-2" d="M1238,562c2,4,20,25,22,28s14,21,13,33-2,19-2,20c0,0,23,18,25,41,0,0-18-28-31-24,0,0,8,26,0,33,0,0,38,23,46,49a26.38,26.38,0,0,0,5,9c4,5,9,14,9,14s3,5,6,7,15.68,18.86,17.84,19.93c-3.25-8.25-6.84-24.67-6.84-56.93,0,0,5-54,6-59s10-31,13-35,10-22,10-28c0,0-11-13-11-16,0,0-14-11-14-15a137.29,137.29,0,0,1-18-5s-6,4-10,6c0,0,0,13-4,14,0,0-3,2-5,2,0,0-2,9-13,6h-3v-9l-2-1s-4-1-4-2c0,0-2,2-3-2s.6-8.68.6-8.68a1.94,1.94,0,0,1-.6.68c-6.27-2.51-23.4-26.11-36-42a117.59,117.59,0,0,0-14-15c.21-.31.45-.72.71-1.2h0L1227,535s7,11,8,13S1236,558,1238,562Z"/><path class="cls-2" d="M783,1047c3-20,2-30,2-32s-3-14-4-25-4-12-5-13-20-23-24-32-2-24-2-26,3-13,2-16-3-10-3-14-5-11-5-11-2-1-4-10-9-15-9-16-5,0-5-4-5-7-6-8-7-3-10-1-12-1-18-5-12,0-12,0-33,11-50,8-44-3-44-3-6,3-6-4c0-11-20-43-20-43a14.39,14.39,0,0,0-3,2c-1,1,0,3-1,4s-2,1-3,2-3,0-4,1-2,1-2,2a1,1,0,0,1-1,1,10.07,10.07,0,0,1-3,1c-1,0-1,0-1-1s0-3-1-4-3,1-4,1,0,3,0,4a1,1,0,0,1-1,1h-2l-2,1a14.39,14.39,0,0,0-3,2c-1,1-1,1-2,1s0-2,0-3v-4h-2s-2,2-2,3-1,5-2,6-2-1-3-2,0-2,0-4-1-2-2-3-1,0-2,0-4,2-4,2a22.69,22.69,0,0,0-1,4c0,1-1,1-2,1s-1-1-2-2,0-2,0-3-1,0-2,0h-3a2.19,2.19,0,0,0-1.5.5l-1,3h-2l-.09-.36a1.51,1.51,0,0,1-.41.86c-1,1-4,3-5,4s-15,14-64,11c0,0-7-1-21,5s-51,23-74,26c0,0-38,38-61,36s-39-7-42-5-12,5-12,5,18,7,24,13,24,16,34,24,10,33,10,33c7,1,18-2,18-2,8,4,8,19,8,31s-12,31-16,35-11,6-18,1,3,6,3,6c23,34,42,49,42,49H786C782,1071,783,1047,783,1047Z"/><path class="cls-2" d="M1395.05,1080.5s-36-17.5-44-131.5l3.2,2.43L1331,933s-7-4-9-4-47,1-47,1c-8,0-9-5-9-5-10-14-27-47-28-52s-3-7-3-7c-6-3-11-16-12-19s-5-2-6,0-1,3-2,4a13.8,13.8,0,0,0-3,4c-1,2-2,3-4,6s-1,4-3,6-1,4-3,13a25.34,25.34,0,0,1-8,14c-1,1-5,5-5,7s-3,9-3,9c-5,9,0,22,0,25s1,18,3,23,0,13,0,13l-11,30c20,35,13,79.5,13,79.5Z"/></g></g></g></svg>