<svg xmlns="http://www.w3.org/2000/svg" viewBox="0 0 1921 1080.5"><defs><style>.cls-1{fill:none;}.cls-2{fill:#24ba20;}</style></defs><g id="Layer_2" data-name="Layer 2"><g id="Layer_1-2" data-name="Layer 1"><rect class="cls-1" width="1921" height="1080"/><path id="_4" data-name="4" class="cls-2" d="M1869.11.5H1485.5c-1,19,5,55,5,54l-.18.47.68,0c32,6,54,54,48,52s-23,10-34,16c-16.89,9.21-41,64-39,74s1,30,2,30-1,5-1,5l16,22-2,6c7,9,7,20,8,42s22,56,22,56c4,7,30,55,30,55-4,8-4,32-5,36s6,16,5,23,2,39,2,39l-31,71,5,6,62,24s-6,11-7,15,1,20-8,28-11,27-13,34-16,12-16,12,2,10-21,23a40.71,40.71,0,0,0-21,35.5l0,1.5s19,72,21,83,9,59,9,64,2,34,2,36,4,52,4,52c1,12-4.5,13.5-10,19-6.67,6.67-29.5,9.5-43.5,9.5s-25-8-27-9-15.78-10.31-17.51-11.48c-.3.75-24.84,61.08-26.91,76.48H1920.5V78.5C1920.5,24.5,1869.11.5,1869.11.5Z"/></g></g></svg>