<svg xmlns="http://www.w3.org/2000/svg" viewBox="0 0 1921.5 1082.5"><defs><style>.cls-1{fill:lime;stroke:#000;stroke-miterlimit:10;}.cls-2{fill:none;}</style></defs><title>1</title><g id="Layer_2" data-name="Layer 2"><g id="Layer_1-2" data-name="Layer 1"><path class="cls-1" d="M.5,241l56-49h128l89,49-13,70-18,64h-78l-12,28,111,127,10,22v69l-21,82-43,32-13,40-18,33-1,35,16,37,31,26,35,16s21,22,22,26,8,18,8,18v15s-19,12-24,11-36-21-36-21l43,53,49,57-321,1Z"/><rect class="cls-2" x="0.5" width="1921" height="1080"/></g></g></svg>