<svg xmlns="http://www.w3.org/2000/svg" viewBox="0 0 740.55 891"><defs><style>.cls-1{fill:#774242;}</style></defs><g id="Layer_2" data-name="Layer 2"><g id="Layer_1-2" data-name="Layer 1"><g id="_1" data-name="1"><path class="cls-1" d="M709.55,188c-39-69-17-147-17-147l28.9-41H229.06L140.55,39l-93,74L0,188l44.05,8.5,48,21,15,28,7,32-11,29-10,38-23,41-31-6L7.55,394l27,55,52,57,36,25,24-9,11-18,10-21,10-15,16-22,33-19,41-19,59-17,47-21,19-39,15-36,20-6,46-15,17-3,20,24,19-3,62-21,55-4,73-8,21-24Z"/><path class="cls-1" d="M262.55,820c-1,0-15-23-15-23l-99-96V643l-40-20.58-.5,41.08L65.62,732.28,29.55,775l8,105,14,11,33-8,18,8,19-2,20-8,26-23,36-10,57-22,32-4,29-4,12-13-30-3S263.55,820,262.55,820Z"/></g></g></g></svg>