<svg xmlns="http://www.w3.org/2000/svg" viewBox="0 0 738.06 1080"><defs><style>.cls-1{fill:#427570;}</style></defs><g id="Layer_2" data-name="Layer 2"><g id="Layer_1-2" data-name="Layer 1"><g id="_2" data-name="2"><path class="cls-1" d="M671.06,580.5l31-75-5-40-4-31,9-20-14-17-24-44-7-26-13-32-5-32v-12l-14-27,1-33,17-38,19-34,14-3,23-13-48-47-23,7-22-11c-2-1-31-12-31-12l-23-8h-13l-24-10-40-8L439.63,0H34.56L.06,40.5l-.06,70,12.92,57.35L53.06,235.5s8-17,9-21,19-15,25-20,10-10,14-14,11-9,13-12,9-7,12-9,11-10,12-12,5-4,5-4,8-11,11-13,15-11,15-11,15-13,17-14,16-11,16-11l12,15,101,102,14,35,17,31s16,29,16,31,14,37,14,37,2,23,2,24,8,35,8,35,7,15,10,18,14,15,15,18-6,9-6,9l14,14,7,11-10,15-25,33,13,17,14,16,24,28,4-6,2-17,4-10,14-16-9,5-15,7-11-3,5-7,7-4,11-10,15-5,20-12,12,5,35,14,16,8,10,15,22,40,19,22,17,37,14,43,11,2,4,30h-13l14,34,4-14,19-22,27-23,10-11,2-12,10-31,16-32Z"/><polygon class="cls-1" points="528.56 812 543.56 834 555.56 849 572.56 862 575.56 838 582.56 806 582.56 777 573.56 722 568.56 719 569.56 698 573.56 695 569.56 669 562.56 661 553.56 652 528.56 613 514.56 642 507.56 664 497.56 706 497.56 743 500.56 788 508.56 800 528.56 812"/><polygon class="cls-1" points="510.56 1006 524.56 1057 552.14 1080 562.98 1079.5 564.56 1067 573.56 1046 590.56 1002 506.56 947 510.56 1006"/></g></g></g></svg>