<svg xmlns="http://www.w3.org/2000/svg" viewBox="0 0 514.5 1079"><defs><style>.cls-1{fill:#7e20a5;}</style></defs><g id="Layer_2" data-name="Layer 2"><g id="Layer_1-2" data-name="Layer 1"><path id="_2" data-name="2" class="cls-1" d="M88,56,86,29,79.65,0h380.9L487,22l17,18,10.5,37L514,1079H0l4.55-18.77L28,1003.71l31.5,15.79,5,1s16-2,17-2,17-2,17-2l15-7,7-7-1-12-3-40-4-66-7-42-10-45-11-36,3-6,4-14,21.81-24.39L147.5,685.5l10.17-37.32L175.5,610.5l-67-30,31-75-9-71,9-20-14-17-24-44-7.85-28.09L81.5,295.5l-4.62-29.59L76.5,251.5l-14-27,1-33,18.7-41,17.3-31,14-3,23-13Z"/></g></g></svg>