<svg xmlns="http://www.w3.org/2000/svg" viewBox="0 0 1202.14 558"><defs><style>.cls-1{fill:#9e2323;}</style></defs><g id="Layer_2" data-name="Layer 2"><g id="Layer_1-2" data-name="Layer 1"><path class="cls-1" d="M594.64,495.5l-4-17-3-20-7-10-12-11-8-12-2-16,2-23s-2-13-2-14-7-15-7-15-4-16-5-17-6-15-8-16-20-8-20-8-15-3-16-3-6-6-6-6l-10,2s-18,5-19,5-19,2-19,2h-18l-16-2h-26l-23-53-9.4,11.36-13,6.18-8.18,4.75-18.44,7.71-33,4-58.58,8.26L167.9,325.32,130.64,335.5l-26,23L84.14,367l-19,2-20.06-7.5L14.14,369,0,372.32,10.64,405.5l46,74,63.4,78h473l-3.44-21,3-21Z"/><path class="cls-1" d="M1202.14,558l-28-23L1160,482l-3.87-57-24-20h-17s-13,2-16,2-15,1-15,1l-8-3-7-11-8-14-5-11-5-15-9-14-10-10,1-5-8-2s-7,8-7,9-5,5-5,5l-7,11s-2,14-3,17-11,11-11,11,1,17,0,19-4,6-3,10,5,32,5,33-4,16-4,16-5,13-6,15-1,2,0,7,11,28,13,31,6,33,6,34-7,16-7,16Z"/><path class="cls-1" d="M1056.64,50.5l17,21,6,19,4,29s-16,17-19,18,4.5,13.5,4.5,13.5l-2,17,8,4,13,12,9,11s13,15,12,16,6,12,6,12l9,10,5,12,7,4,14,17-3-40.94V184l17-64,14-29-12-17-7-6-8-9-19-4-10,5v9l-9,6-5,5s-5,2-8,3-3-5-3-5l-2-7s-4-2-4-4V61l-16.47-19.3L1040.14,0l-5.5,13.5s11,21,12,23S1056.64,50.5,1056.64,50.5Z"/></g></g></svg>