<svg xmlns="http://www.w3.org/2000/svg" xmlns:xlink="http://www.w3.org/1999/xlink" viewBox="0 0 1922.13 1081.7"><defs><style>.cls-1{fill:none;}.cls-2{clip-path:url(#clip-path);}</style><clipPath id="clip-path" transform="translate(0.17)"><path class="cls-1" d="M0,241l56-49H184l89,49-13,70-18,64H164l-12,28L263,530l10,22v69l-21,82-43,32-13,40-18,33-1,35,16,37,31,26,35,16s21,22,22,26,8,18,8,18v15s-19,12-24,11-36-21-36-21l43,53,49,57L0,1082Z"/></clipPath></defs><title>2</title><g id="Layer_2" data-name="Layer 2"><g id="Layer_1-2" data-name="Layer 1"><g class="cls-2"><image width="1920" height="1080" transform="translate(0 0.5)" xlink:href="../../img/01-01_1920x1080.jpg"/></g><rect class="cls-1" x="0.17" width="1921" height="1080"/></g></g></svg>