<svg xmlns="http://www.w3.org/2000/svg" xmlns:xlink="http://www.w3.org/1999/xlink" viewBox="0 0 1921 1080.1"><defs><style>.cls-1{fill:none;}.cls-2{clip-path:url(#clip-path);}</style><clipPath id="clip-path" transform="translate(-0.5)"><polygon class="cls-1" points="314.9 1080 251 1001.5 205 927.5 187 869.5 187 830.5 187 775.5 225 730.5 265 663.5 266 639.5 266 614.5 289 559.5 304 522.5 280 531.5 244 506.5 192 449.5 165 394.5 196 380.5 227 386.5 250 344.5 260 307.5 271 278.5 264 246.5 249 218.5 201 196.5 150 188.5 100 188.5 34 207.5 0.5 242.79 0 1080.5 314.9 1080"/></clipPath></defs><g id="Layer_2" data-name="Layer 2"><g id="Layer_1-2" data-name="Layer 1"><g class="cls-2"><image width="1920" height="1080" transform="translate(0.9 0.1)" xlink:href="../../img/01-01_1920x1080.jpg"/></g><rect class="cls-1" width="1921" height="1080"/></g></g></svg>