<svg xmlns="http://www.w3.org/2000/svg" viewBox="0 0 1921 1080"><defs><style>.cls-1{fill:none;}.cls-2{fill:#774242;}</style></defs><g id="Layer_2" data-name="Layer 2"><g id="Layer_1-2" data-name="Layer 1"><rect class="cls-1" width="1921" height="1080"/><g id="_1" data-name="1"><path class="cls-2" d="M866.5,188.5c-39-69-17-147-17-147L878.4.5H386l-88.52,39-93,74L157,188.5,201,197l48,21,15,28,7,32-11,29-10,38-23,41-31-6-31.5,14.5,27,55,52,57,36,25,24-9,11-18,10-21,10-15,16-22,33-19,41-19,59-17,47-21,19-39,15-36,20-6,46-15,17-3,20,24,19-3,62-21,55-4,73-8,21-24Z"/><path class="cls-2" d="M419.5,820.5c-1,0-15-23-15-23l-99-96v-58l-40-20.58L265,664l-42.43,68.78L186.5,775.5l8,105,14,11,33-8,18,8,19-2,20-8,26-23,36-10,57-22,32-4,29-4,12-13-30-3S420.5,820.5,419.5,820.5Z"/></g></g></g></svg>