<svg xmlns="http://www.w3.org/2000/svg" viewBox="0 0 1921 1080.5"><defs><style>.cls-1{fill:none;}.cls-2{fill:#427570;}</style></defs><g id="Layer_2" data-name="Layer 2"><g id="Layer_1-2" data-name="Layer 1"><rect class="cls-1" width="1921" height="1080"/><g id="_2" data-name="2"><path class="cls-2" d="M1515,581l31-75-5-40-4-31,9-20-14-17-24-44-7-26-13-32-5-32V252l-14-27,1-33,17-38,19-34,14-3,23-13-48-47-23,7-22-11c-2-1-31-12-31-12l-23-8h-13l-24-10-40-8L1283.56.5H878.5L844,41l-.06,70,12.92,57.35L897,236s8-17,9-21,19-15,25-20,10-10,14-14,11-9,13-12,9-7,12-9,11-10,12-12,5-4,5-4,8-11,11-13,15-11,15-11,15-13,17-14,16-11,16-11l12,15,101,102,14,35,17,31s16,29,16,31,14,37,14,37,2,23,2,24,8,35,8,35,7,15,10,18,14,15,15,18-6,9-6,9l14,14,7,11-10,15-25,33,13,17,14,16,24,28,4-6,2-17,4-10,14-16-9,5-15,7-11-3,5-7,7-4,11-10,15-5,20-12,12,5,35,14,16,8,10,15,22,40,19,22,17,37,14,43,11,2,4,30h-13l14,34,4-14,19-22,27-23,10-11,2-12,10-31,16-32Z"/><polygon class="cls-2" points="1372.5 812.5 1387.5 834.5 1399.5 849.5 1416.5 862.5 1419.5 838.5 1426.5 806.5 1426.5 777.5 1417.5 722.5 1412.5 719.5 1413.5 698.5 1417.5 695.5 1413.5 669.5 1406.5 661.5 1397.5 652.5 1372.5 613.5 1358.5 642.5 1351.5 664.5 1341.5 706.5 1341.5 743.5 1344.5 788.5 1352.5 800.5 1372.5 812.5"/><polygon class="cls-2" points="1354.5 1006.5 1368.5 1057.5 1396.08 1080.5 1406.92 1080 1408.5 1067.5 1417.5 1046.5 1434.5 1002.5 1350.5 947.5 1354.5 1006.5"/></g></g></g></svg>