<svg xmlns="http://www.w3.org/2000/svg" viewBox="0 0 1921 1080"><defs><style>.cls-1{fill:none;}.cls-2{fill:#7e20a5;}</style></defs><g id="Layer_2" data-name="Layer 2"><g id="Layer_1-2" data-name="Layer 1"><rect class="cls-1" width="1921" height="1080"/><path id="_2" data-name="2" class="cls-2" d="M1494.5,56.5l-2-27-6.35-29h380.9l26.45,22,17,18,10.5,37-.5,1002h-514l4.55-18.77,23.45-56.52L1466,1020l5,1s16-2,17-2,17-2,17-2l15-7,7-7-1-12-3-40-4-66-7-42-10-45-11-36,3-6,4-14,21.81-24.39L1554,686l10.17-37.32L1582,611l-67-30,31-75-9-71,9-20-14-17-24-44-7.85-28.09L1488,296l-4.62-29.59L1483,252l-14-27,1-33,18.7-41,17.3-31,14-3,23-13Z"/></g></g></svg>