<svg xmlns="http://www.w3.org/2000/svg" viewBox="0 0 1921 1080"><defs><style>.cls-1{fill:none;}.cls-2{fill:#21a333;}</style></defs><g id="Layer_2" data-name="Layer 2"><g id="Layer_1-2" data-name="Layer 1"><rect class="cls-1" width="1921" height="1080"/><g id="_3" data-name="3"><path class="cls-2" d="M530.5,776.5l-33-3-28-3-27-4-23-2-20-4-24-8-13-14-12-16v-13l10-20,8-20,20-48,17-33,26-48,11-18L444,517l-2-7,3-6h9l19-29,14-20s-1-11,0-12l5-5,3-3,6-7,5-14,5-7,7-9,9-12,5-11-2.31-4.14-48,21.16-56,16.14-40.36,18.49L351,447l-22.82,31L304,523l-38,92v8l40,21v58l97.07,94.11L420,821l41-18,28.13,2.36L478.5,818.5l33-4s10-4,11-4,11-7,11-7l21-10,6-9-4-8Z"/><path class="cls-2" d="M1259.65,460.65,1249,450l5.94-7.41-6.16-10L1239,421.73,1230,405l-8-35-2-24-14.47-38.41L1174.1,249,1159,212l-97.77-98.74L1046,95l-18.78,13L998,131l-11,13-3.73,2.47-11.53,12.18-10.84,7.47L950.63,176,931,195l-24.09,18.45L897,236l-21,24L747,272l-61.67,20.68L668,296l6,16s7,12,7,13v7l-9-2-6-1-5-6,1,11,1,11-3,6v5l-1,16-2,2s-6-2-7-2-4-3-4-3l-4,8-3,5h-3a17.27,17.27,0,0,0-3-4l-2-2h-3l-3,2-6-7-8,15-15,18-14,10-11,12-12,13-10,23-2,3,2,5-2,6-3,2-21,48,2,3-2,9-5,9-8,24-5,25-5,31-6,22-5,16,1.5,2.5,28,1,10-1h15l14-3,12-4S580,659,581,659h14c1,0,10,2,10,2l18-2h24l14-2,8-3s5,1,5,0,8,0,8,0l8-4,8-4h18a39.87,39.87,0,0,0,4-3c1-1,5-2,5-2h5a43.31,43.31,0,0,1,5,1l2-3s14-3,15-3,12-3,12-3l8-11,12-14,9-25,11-19,12-20,13-11s12-9,13-9,9-6,9-6l5-18,10-3,11-13s10-17,11-18,6-20,6-21-4-18-4-20-10-18-10-20-1-15,1-18,8-9,10-11,11-6,13-7,7-12,7-14V344s-2-12,0-13,7-6,8-7,6-20,6-24,9-14,10-15,9-5,10-6,12-10,13-11,16-10,16-10l12-4,14-3,15-7s16,4,16,5,7-8,7-8l26-4,16,6,12,7,10,1,14,5s11,3,12,4l8,8s7,12,8,12,9,8,9,8,9,5,11,6,11,18,11,18l9,12s4,11,4,12,4,10,5,10,5,17,5,18-2,17-2,17-4,9-4,10-2,8-1,9,8,15,8,15l-2,18s2,13,2,14,5,14,5,14l4,9s3,11,2,12,5,18,5,20,6,21,6,21l8,13,6-13,19.51-25.75L1270,475Z"/></g></g></g></svg>